# Blender v2.79 (sub 0) OBJ File: 'Plug.blend'
# www.blender.org
o CirclePlug_Cube.001
v 0.671049 -1.000000 -0.671049
v 0.671049 -1.000000 0.671049
v 0.127070 -1.000000 0.671049
v 0.127070 -1.000000 -0.671049
v 0.942232 0.121360 -0.942232
v 0.942232 0.121360 0.942233
v -0.144114 0.121360 0.942232
v -0.144113 0.121360 -0.942232
v 1.152410 0.174680 -1.171621
v 1.152409 0.174680 1.156732
v 0.509057 0.386893 0.676594
v -0.354291 0.174680 1.156731
v 0.288433 0.386893 0.676594
v -0.354290 0.174680 -1.171622
v 0.247412 -1.636988 -0.198210
v 0.572500 -1.636988 -0.188981
v 0.255914 -1.636988 0.269338
v 0.572700 -1.636988 0.276606
v 0.215913 -1.262528 0.445567
v 0.204742 -1.257116 -0.422899
v 0.632128 -1.262528 0.423434
v 0.631865 -1.257116 -0.410774
v 1.152408 0.386893 1.156732
v -0.354291 0.386893 1.156731
v 1.152410 0.386893 -1.171621
v -0.354290 0.386893 -1.171622
v 0.509058 0.386893 0.457406
v 0.288434 0.386893 0.457406
v 0.500877 0.386893 -0.428650
v 0.287415 0.386893 -0.426042
v 0.503362 0.386893 -0.630057
v 0.284880 0.386893 -0.634091
v 0.468537 1.994337 0.497927
v 0.468537 1.994337 0.636074
v 0.328954 1.994337 0.497926
v 0.328954 1.994337 0.636074
v 0.476241 1.994337 -0.585129
v 0.474591 1.994337 -0.476926
v 0.312056 1.994337 -0.590956
v 0.313739 1.994337 -0.470834
v 0.503362 1.894881 -0.630057
v 0.500877 1.894881 -0.428650
v 0.284880 1.894881 -0.634091
v 0.287415 1.894881 -0.426042
v 0.509058 1.894881 0.457406
v 0.509057 1.894881 0.676594
v 0.288434 1.894881 0.457406
v 0.288433 1.894881 0.676594
v 0.516646 0.386894 -0.528815
v 0.267549 0.386894 -0.531032
v 0.516646 1.894881 -0.528815
v 0.267549 1.894881 -0.531032
v 0.485494 1.994337 -0.529263
v 0.298755 1.994337 -0.528141
v 0.527977 0.386894 0.567000
v 0.269514 0.386894 0.567000
v 0.527977 1.894881 0.567000
v 0.269514 1.894881 0.567000
v 0.480507 1.994337 0.567000
v 0.316984 1.994337 0.567000
v 0.409956 -1.636988 -0.193596
v 0.399060 0.121360 -0.942232
v 0.399059 0.121360 0.942232
v 0.399060 0.386893 -1.171622
v 0.399059 0.386893 1.156731
v 0.399060 0.174680 -1.171622
v 0.399059 0.174680 1.156731
v 0.414307 -1.636988 0.272972
v 0.424020 -1.262528 0.434501
v 0.418303 -1.257116 -0.416837
v 0.399060 -1.000000 -0.671049
v 0.399059 -1.000000 0.671049
v 0.398746 0.386894 0.441253
v 0.398745 0.386894 0.692748
v 0.397893 0.386894 -0.401925
v 0.397863 0.386894 -0.653749
v 0.398746 1.894881 0.441253
v 0.398745 1.894881 0.692748
v 0.397893 1.894881 -0.401925
v 0.397863 1.894881 -0.653749
v 0.397915 1.994337 -0.456820
v 0.397896 1.994337 -0.598860
v 0.398746 1.994337 0.487746
v 0.398745 1.994337 0.646254
v 0.397902 2.016972 -0.529424
v 0.398745 2.023297 0.567000
vt 0.535758 0.053094
vt 0.513968 0.045774
vt 0.602556 0.034888
vt 0.619463 0.036849
vt 0.822160 0.421862
vt 0.701865 0.421862
vt 0.701865 0.942034
vt 0.822160 0.942034
vt 0.283588 0.144465
vt 0.215416 0.360959
vt 0.220510 0.350230
vt 0.298137 0.156744
vt 0.096296 0.425454
vt 0.132506 0.567241
vt 0.104407 0.565866
vt 0.056925 0.421429
vt 0.230476 0.104431
vt 0.483384 0.075183
vt 0.510477 0.089654
vt 0.443875 0.446179
vt 0.238730 0.647310
vt 0.465618 0.592498
vt 0.414506 0.457226
vt 0.155856 0.393206
vt 0.411433 0.563556
vt 0.385136 0.468273
vt 0.055715 0.565789
vt 0.008879 0.414115
vt 0.138717 0.385830
vt 0.090798 0.377099
vt 0.172716 0.340084
vt 0.249394 0.157240
vt 0.174984 0.110092
vt 0.223701 0.109883
vt 0.476030 0.482437
vt 0.498069 0.475609
vt 0.582059 0.501792
vt 0.565216 0.504247
vt 0.512690 0.563259
vt 0.591512 0.541655
vt 0.557549 0.060414
vt 0.574605 0.539693
vt 0.453990 0.489264
vt 0.469109 0.548618
vt 0.548374 0.506702
vt 0.557698 0.537732
vt 0.068413 0.437578
vt 0.066383 0.428484
vt 0.064352 0.419391
vt 0.083975 0.566355
vt 0.082244 0.559163
vt 0.080513 0.551971
vt 0.102303 0.388033
vt 0.140254 0.356675
vt 0.143366 0.353639
vt 0.146479 0.350603
vt 0.188757 0.139235
vt 0.192118 0.137094
vt 0.195479 0.134953
vt 0.112206 0.597025
vt 0.143898 0.642080
vt 0.107446 0.394090
vt 0.856293 0.412114
vt 0.893184 0.412114
vt 0.893184 0.932286
vt 0.856293 0.932286
vt 0.162156 0.099232
vt 0.816817 0.642098
vt 0.816816 0.618272
vt 0.890332 0.618272
vt 0.890332 0.642098
vt 0.807834 0.664884
vt 0.730943 0.665938
vt 0.731704 0.645220
vt 0.807842 0.644117
vt 0.821801 0.423871
vt 0.937999 0.423871
vt 0.937999 0.944043
vt 0.821801 0.944043
vt 0.861850 0.454302
vt 0.899654 0.454302
vt 0.899654 0.974473
vt 0.861850 0.974473
vt 0.848062 0.408366
vt 0.811318 0.408366
vt 0.811318 0.928538
vt 0.848062 0.928538
vt 0.853740 0.444927
vt 0.815936 0.444927
vt 0.815936 0.965098
vt 0.853740 0.965098
vt 0.815551 0.436668
vt 0.699353 0.436668
vt 0.699353 0.956840
vt 0.815551 0.956840
vt 0.811844 0.442769
vt 0.929465 0.442769
vt 0.929465 0.962941
vt 0.811844 0.962941
vt 0.884726 0.663830
vt 0.883979 0.643015
vt 0.925449 0.626362
vt 0.926771 0.663253
vt 0.730182 0.686656
vt 0.687506 0.703257
vt 0.688855 0.666513
vt 0.690205 0.629769
vt 0.807827 0.628066
vt 0.807827 0.685651
vt 0.885472 0.684645
vt 0.928094 0.700143
vt 0.807800 0.701700
vt 0.933015 0.604294
vt 0.933015 0.642098
vt 0.816817 0.665925
vt 0.890332 0.665925
vt 0.933015 0.679902
vt 0.816817 0.679902
vt 0.743301 0.618272
vt 0.700618 0.604294
vt 0.816816 0.604294
vt 0.743301 0.642098
vt 0.743301 0.665925
vt 0.700618 0.679902
vt 0.700618 0.642098
vt 0.884806 0.408366
vt 0.884806 0.928538
vt 0.819403 0.412114
vt 0.819403 0.932286
vt 0.891544 0.444927
vt 0.891544 0.965098
vt 0.824046 0.454302
vt 0.824046 0.974473
vt 0.694222 0.442769
vt 0.694222 0.962941
vt 0.931749 0.436668
vt 0.931749 0.956840
vt 0.705603 0.423871
vt 0.705603 0.944043
vt 0.100573 0.062944
vt 0.128833 0.063511
vt 0.456291 0.060712
vt 0.177364 0.064396
vt 0.149265 0.063022
vt 0.942454 0.421862
vt 0.942454 0.942034
vt 0.636370 0.038810
vn 0.0245 -0.5069 -0.8617
vn -0.1714 0.0000 -0.9852
vn -0.2459 -0.9693 -0.0000
vn 0.2459 -0.9693 0.0000
vn 0.0000 -0.2351 -0.9720
vn -0.9720 -0.2351 -0.0000
vn -0.0000 -0.2351 0.9720
vn 0.9720 -0.2351 0.0000
vn 1.0000 -0.0000 0.0000
vn -0.0000 0.0000 1.0000
vn -1.0000 -0.0000 -0.0000
vn 0.0000 0.0000 -1.0000
vn -0.0000 -0.9705 0.2412
vn 0.0000 -0.9740 -0.2264
vn 0.0185 -0.4104 0.9117
vn -0.9523 -0.3050 0.0041
vn -0.9940 -0.1080 0.0142
vn 0.0173 -0.6584 0.7525
vn 0.0089 -0.6979 -0.7161
vn 0.0000 -1.0000 -0.0000
vn 0.9889 -0.1486 -0.0005
vn 0.9878 -0.1557 -0.0010
vn 0.0000 1.0000 -0.0000
vn 0.9915 0.0000 -0.1301
vn 0.1969 0.9591 0.2032
vn -0.1331 0.9737 0.1850
vn 0.1449 0.0000 0.9894
vn 0.9854 0.0000 -0.1701
vn -0.9826 0.0000 0.1859
vn -0.9854 0.0000 0.1701
vn -0.1449 0.0000 -0.9894
vn 0.2512 0.0000 0.9679
vn 0.9364 0.3105 0.1638
vn -0.9337 0.3139 -0.1724
vn -0.1707 0.4594 0.8716
vn 0.1771 0.4606 -0.8698
vn 0.8916 0.4258 0.1541
vn 0.1313 0.4196 -0.8981
vn -0.1313 0.4196 0.8981
vn -0.8916 0.4258 -0.1541
vn -0.9293 0.3108 0.1995
vn 0.9423 0.3063 -0.1352
vn -0.9862 0.0000 -0.1658
vn -0.1283 0.9753 -0.1798
vn 0.9878 0.0000 0.1555
vn -0.8916 0.4258 0.1541
vn 0.8916 0.4258 -0.1541
vn -0.9854 0.0000 -0.1701
vn 0.9854 0.0000 0.1701
vn 0.1969 0.9591 -0.2032
vn -0.1969 0.9591 -0.2032
vn 0.1481 0.9713 -0.1864
vn 0.1313 0.4196 0.8981
vn -0.1313 0.4196 -0.8981
vn -0.1225 0.4521 -0.8835
vn 0.2224 0.4719 0.8532
vn -0.2133 0.0000 0.9770
vn 0.1449 0.0000 -0.9894
vn -0.1449 0.0000 0.9894
vn 0.1565 0.9694 0.1893
vn -0.1969 0.9591 0.2032
vn 0.0088 -0.7074 -0.7067
vn 0.0169 -0.6780 0.7348
vn 0.0187 -0.3821 0.9239
vn 0.2191 0.0000 -0.9757
s off
f 70/1/1 22/2/1 16/3/1 61/4/1
f 76/5/2 32/6/2 43/7/2 80/8/2
f 8/9/3 7/10/3 12/11/3 14/12/3
f 6/13/4 5/14/4 9/15/4 10/16/4
f 62/17/5 71/18/5 4/19/5 8/9/5
f 3/20/6 7/10/6 8/21/6 4/22/6
f 72/23/7 63/24/7 7/10/7 3/20/7
f 1/25/8 5/14/8 6/13/8 2/26/8
f 9/15/9 25/27/9 23/28/9 10/16/9
f 67/29/10 65/30/10 24/31/10 12/11/10
f 12/11/11 24/31/11 26/32/11 14/12/11
f 64/33/12 66/34/12 14/12/12 26/32/12
f 63/24/13 6/13/13 10/16/13 67/29/13
f 62/17/14 8/9/14 14/12/14 66/34/14
f 69/35/15 19/36/15 17/37/15 68/38/15
f 4/22/16 20/39/16 19/36/16 3/20/16
f 19/36/17 20/39/17 15/40/17 17/37/17
f 69/35/18 72/23/18 3/20/18 19/36/18
f 71/18/19 70/1/19 20/41/19 4/19/19
f 61/42/20 68/38/20 17/37/20 15/40/20
f 2/26/21 21/43/21 22/44/21 1/25/21
f 22/44/22 21/43/22 18/45/22 16/46/22
f 27/47/23 55/48/23 11/49/23 23/28/23 25/27/23 31/50/23 49/51/23 29/52/23
f 74/53/23 13/54/23 24/31/23 65/30/23
f 13/54/23 56/55/23 28/56/23 30/57/23 50/58/23 32/59/23 26/32/23 24/31/23
f 75/60/23 30/61/23 28/56/23 73/62/23
f 49/63/24 31/64/24 41/65/24 51/66/24
f 64/33/23 26/32/23 32/59/23 76/67/23
f 86/68/25 84/69/25 34/70/25 59/71/25
f 85/72/26 54/73/26 40/74/26 81/75/26
f 74/76/27 11/77/27 46/78/27 78/79/27
f 55/80/28 27/81/28 45/82/28 57/83/28
f 50/84/29 30/85/29 44/86/29 52/87/29
f 56/88/30 13/89/30 48/90/30 58/91/30
f 73/92/31 28/93/31 47/94/31 77/95/31
f 75/96/32 29/97/32 42/98/32 79/99/32
f 53/100/33 38/101/33 42/102/33 51/103/33
f 54/73/34 39/104/34 43/105/34 52/106/34
f 81/75/35 40/74/35 44/107/35 79/108/35
f 82/109/36 37/110/36 41/111/36 80/112/36
f 59/71/37 34/70/37 46/113/37 57/114/37
f 83/115/38 33/116/38 45/117/38 77/118/38
f 84/69/39 36/119/39 48/120/39 78/121/39
f 60/122/40 35/123/40 47/124/40 58/125/40
f 40/74/41 54/73/41 52/106/41 44/107/41
f 37/110/42 53/100/42 51/103/42 41/111/42
f 32/126/43 50/84/43 52/87/43 43/127/43
f 82/109/44 39/104/44 54/73/44 85/72/44
f 29/128/45 49/63/45 51/66/45 42/129/45
f 36/119/46 60/122/46 58/125/46 48/120/46
f 33/116/47 59/71/47 57/114/47 45/117/47
f 28/130/48 56/88/48 58/91/48 47/131/48
f 11/132/49 55/80/49 57/83/49 46/133/49
f 83/115/50 86/68/50 59/71/50 33/116/50
f 35/123/51 60/122/51 86/68/51 83/115/51
f 37/110/52 82/109/52 85/72/52 53/100/52
f 34/70/53 84/69/53 78/121/53 46/113/53
f 35/123/54 83/115/54 77/118/54 47/124/54
f 39/104/55 82/109/55 80/112/55 43/105/55
f 38/101/56 81/75/56 79/108/56 42/102/56
f 30/134/57 75/96/57 79/99/57 44/135/57
f 27/136/58 73/92/58 77/95/58 45/137/58
f 13/138/59 74/76/59 78/79/59 48/139/59
f 53/100/60 85/72/60 81/75/60 38/101/60
f 60/122/61 36/119/61 84/69/61 86/68/61
f 25/140/23 64/33/23 76/67/23 31/141/23
f 29/52/23 75/60/23 73/62/23 27/47/23
f 11/49/23 74/53/23 65/30/23 23/28/23
f 16/46/20 18/45/20 68/38/20 61/42/20
f 1/142/62 22/2/62 70/1/62 71/18/62
f 21/43/63 2/26/63 72/23/63 69/35/63
f 21/43/64 69/35/64 68/38/64 18/45/64
f 5/143/14 62/17/14 66/34/14 9/144/14
f 7/10/13 63/24/13 67/29/13 12/11/13
f 25/140/12 9/144/12 66/34/12 64/33/12
f 10/16/10 23/28/10 65/30/10 67/29/10
f 2/26/7 6/13/7 63/24/7 72/23/7
f 5/143/5 1/142/5 71/18/5 62/17/5
f 31/145/65 76/5/65 80/8/65 41/146/65
f 20/41/1 70/1/1 61/4/1 15/147/1
