# Blender v2.79 (sub 0) OBJ File: 'Plug.blend'
# www.blender.org
o CircleSocekt_Cube.004
v 0.040806 -0.114096 0.497927
v 0.040806 -0.114096 0.636074
v -0.098776 -0.114096 0.497926
v -0.098776 -0.114096 0.636074
v 0.048511 -0.114096 -0.585129
v 0.046861 -0.114096 -0.476926
v -0.115674 -0.114096 -0.590956
v -0.113992 -0.114096 -0.470834
v 0.075632 -0.213553 -0.630057
v 0.073147 -0.213553 -0.428650
v -0.142850 -0.213553 -0.634091
v -0.140315 -0.213553 -0.426042
v 0.081327 -0.213553 0.457406
v 0.081327 -0.213553 0.676594
v -0.139297 -0.213553 0.457406
v -0.139297 -0.213553 0.676594
v 0.088916 -0.213553 -0.528815
v -0.160182 -0.213553 -0.531032
v 0.057764 -0.114096 -0.529263
v -0.128976 -0.114096 -0.528141
v 0.100247 -0.213553 0.567000
v -0.158217 -0.213553 0.567000
v 0.052776 -0.114096 0.567000
v -0.110746 -0.114096 0.567000
v -0.028985 -0.213553 0.441253
v -0.028985 -0.213553 0.692747
v -0.029838 -0.213553 -0.401925
v -0.029867 -0.213553 -0.653749
v -0.029816 -0.114096 -0.456820
v -0.029835 -0.114096 -0.598860
v -0.028985 -0.114096 0.487746
v -0.028985 -0.114096 0.646254
v -0.029828 -0.091462 -0.529424
v -0.028985 -0.085136 0.567000
v -0.832528 -0.912907 1.083529
v -1.000000 0.082657 1.184397
v -0.832528 -0.912907 -1.077591
v -1.000000 0.082657 -1.183533
v 0.846548 -0.912907 1.083529
v 1.000000 0.082657 1.184397
v 0.846548 -0.912907 -1.077591
v 1.000000 0.082657 -1.183533
v -1.000000 0.082657 -0.832379
v 1.000000 0.082657 -0.832379
v 1.000000 0.082657 -0.422328
v -1.000000 0.082657 -0.422328
v 1.000000 0.082657 0.452850
v -1.000000 0.082657 0.452850
v 1.000000 0.082657 0.826214
v -1.000000 0.082657 0.826214
v -0.460808 -0.912907 -1.077591
v -0.460808 0.082657 -1.183533
v -0.460808 -0.912907 1.083529
v -0.460808 0.082657 1.184397
v -0.460808 0.082657 -0.832379
v -0.460808 0.082657 -0.422328
v -0.460808 0.082657 0.452850
v -0.460808 0.082657 0.826214
v 0.561455 0.082657 -1.183533
v 0.561455 0.082657 -0.832379
v 0.561455 0.082657 -0.422328
v 0.561455 0.082657 0.452850
v 0.561455 0.082657 0.826214
v 0.561455 0.082657 1.184397
v 0.846548 -0.912907 -0.867608
v -0.832528 -0.912907 -0.885168
v -0.386065 -0.912907 -0.879778
v -0.832528 -0.912907 0.960879
v 0.846548 -0.912907 0.924833
v -0.361262 -0.912907 0.949367
v 0.515180 -0.912907 -1.077591
v 0.493222 -0.912907 1.083529
v 0.508058 -0.912907 -0.871927
v 0.500070 -0.912907 0.933843
v -0.560176 -0.912907 -1.077591
v -0.591271 -0.912907 1.083529
v -0.570202 -0.912907 -0.881395
v -0.581696 -0.912907 0.953340
v -0.386065 -0.956092 -0.879778
v -0.570202 -0.956092 -0.881395
v -0.361262 -0.956092 0.949367
v 0.500070 -0.956092 0.933843
v 0.508058 -0.956091 -0.871927
v -0.581696 -0.956092 0.953340
v -1.000000 -0.794758 1.184397
v 1.000000 -0.792601 1.184397
v -1.000000 -0.795641 -1.183533
v 1.000000 -0.771448 -1.183533
v -0.140315 -0.956092 -0.426042
v -0.139297 -0.956092 0.676594
v 0.088916 -0.956092 -0.528815
v -0.139297 -0.956092 0.457406
v -0.158217 -0.956092 0.567000
v -0.028985 -0.956092 0.441253
v 0.081327 -0.956092 0.676594
v 0.100247 -0.956092 0.567000
v 0.081327 -0.956092 0.457406
v -0.142850 -0.956092 -0.634091
v 0.075632 -0.956092 -0.630057
v -0.028985 -0.956092 0.692747
v -0.029838 -0.956092 -0.401925
v 0.073147 -0.956092 -0.428650
v -0.160182 -0.956092 -0.531032
v -0.029867 -0.956092 -0.653749
vt 0.319518 0.080871
vt 0.294458 0.067653
vt 0.298775 0.066607
vt 0.317702 0.084458
vt 0.169358 0.328065
vt 0.166066 0.316137
vt 0.200287 0.294951
vt 0.206497 0.293908
vt 0.133129 0.344777
vt 0.114540 0.323448
vt 0.113476 0.307739
vt 0.135816 0.337849
vt 0.211359 0.254813
vt 0.206941 0.266640
vt 0.201248 0.300509
vt 0.152550 0.277170
vt 0.199100 0.251132
vt 0.168263 0.324922
vt 0.164703 0.300289
vt 0.124268 0.328791
vt 0.137944 0.346007
vt 0.275474 0.081442
vt 0.284659 0.078367
vt 0.316547 0.093320
vt 0.305420 0.124979
vt 0.274106 0.095929
vt 0.296211 0.075253
vt 0.313947 0.106952
vt 0.342786 0.137469
vt 0.336581 0.103388
vt 0.340381 0.109775
vt 0.346942 0.148681
vt 0.339046 0.150993
vt 0.337180 0.110160
vt 0.141537 0.165494
vt 0.179051 0.134324
vt 0.128214 0.142130
vt 0.130348 0.158817
vt 0.319909 0.272646
vt 0.294274 0.241897
vt 0.280027 0.261647
vt 0.303353 0.295432
vt 0.329539 0.325854
vt 0.341783 0.320967
vt 0.344049 0.305948
vt 0.215698 0.079707
vt 0.200689 0.073515
vt 0.160991 0.105811
vt 0.216651 0.096439
vt 0.283490 0.245919
vt 0.899522 0.668588
vt 0.466642 0.667420
vt 0.502890 0.603441
vt 0.555108 0.603441
vt 0.583345 0.603441
vt 0.789835 0.603441
vt 0.866309 0.603441
vt 0.552618 0.770631
vt 0.429907 0.770631
vt 0.429907 0.737785
vt 0.552618 0.737785
vt 0.552618 0.954933
vt 0.429907 0.954933
vt 0.429907 0.922731
vt 0.552618 0.922731
vt 0.429907 0.885127
vt 0.552618 0.885127
vt 0.069575 0.903024
vt 0.380589 0.902305
vt 0.366674 0.806671
vt 0.341401 0.806671
vt 0.098933 0.806671
vt 0.082823 0.806671
vt 0.429907 0.804870
vt 0.552618 0.804870
vt 0.307121 0.858262
vt 0.082366 0.845796
vt 0.091940 0.774895
vt 0.107003 0.774895
vt 0.277134 0.774895
vt 0.297065 0.774895
vt 0.785268 0.804870
vt 0.785268 0.770631
vt 0.785268 0.885127
vt 0.785268 0.922731
vt 0.785268 0.954933
vt 0.785268 0.737785
vt 0.410817 0.854859
vt 0.797857 0.866572
vt 0.768161 0.798082
vt 0.704035 0.798082
vt 0.515162 0.798082
vt 0.495932 0.798082
vt 0.443227 0.798082
vt 0.465160 0.662088
vt 0.287598 0.662088
vt 0.287598 0.603651
vt 0.465160 0.603651
vt 0.885073 0.954933
vt 0.885073 0.922731
vt 0.465160 0.932684
vt 0.287598 0.932684
vt 0.287598 0.865785
vt 0.465160 0.865785
vt 0.287598 0.723002
vt 0.465160 0.723002
vt 0.642549 0.944361
vt 0.354055 0.945382
vt 0.329939 0.971100
vt 0.644847 0.971100
vt 0.294642 0.945592
vt 0.210001 0.946082
vt 0.210001 0.971100
vt 0.297877 0.971100
vt 0.290934 0.707052
vt 0.362058 0.707569
vt 0.329939 0.690126
vt 0.287844 0.690126
vt 0.639972 0.709587
vt 0.751765 0.710759
vt 0.751765 0.690126
vt 0.637762 0.690126
vt 0.528842 0.134987
vt 0.975904 0.134987
vt 0.975904 0.080966
vt 0.528842 0.080966
vt 0.210001 0.706072
vt 0.751765 0.943799
vt 0.751765 0.971100
vt 0.210001 0.690126
vt 0.712442 0.108649
vt 0.646192 0.108650
vt 0.646192 0.076178
vt 0.712442 0.076178
vt 0.632427 0.173558
vt 0.935479 0.173558
vt 0.935479 0.129269
vt 0.632427 0.129269
vt 0.929909 0.214650
vt 0.566095 0.214650
vt 0.566095 0.160629
vt 0.929909 0.160629
vt 0.971310 0.108650
vt 0.971310 0.076178
vt 0.783745 0.160043
vt 0.875813 0.160043
vt 0.875813 0.106022
vt 0.783745 0.106022
vt 0.656218 0.049493
vt 0.579033 0.048933
vt 0.727315 0.103442
vt 0.733939 0.087979
vt 0.772565 0.085700
vt 0.811191 0.087979
vt 0.817816 0.103442
vt 0.957814 0.051683
vt 0.150337 0.596520
vt 0.233716 0.596520
vt 0.277693 0.596520
vt 0.277693 0.775566
vt 0.114569 0.775126
vt 0.114569 0.596520
vt 0.442857 0.888463
vt 0.464851 0.888463
vt 0.483686 0.888463
vt 0.483686 0.595956
vt 0.356675 0.596250
vt 0.356675 0.888463
vt 0.375888 0.888463
vt 0.395914 0.888463
vt 0.207526 0.931264
vt 0.349240 0.931264
vt 0.410034 0.931264
vt 0.410034 0.635033
vt 0.132780 0.626642
vt 0.132780 0.931264
vt 0.277788 0.830900
vt 0.254449 0.830900
vt 0.204636 0.830900
vt 0.183385 0.830900
vt 0.162998 0.830900
vt 0.162998 0.521583
vt 0.297774 0.529058
vt 0.297774 0.830900
vt 0.811191 0.118905
vt 0.772565 0.121184
vt 0.733940 0.118905
vt 0.583058 0.307799
vt 0.726627 0.258366
vt 0.733583 0.243553
vt 0.772267 0.240150
vt 0.808327 0.243921
vt 0.813848 0.258053
vt 0.960612 0.306463
vt 0.809197 0.272337
vt 0.772256 0.275680
vt 0.732695 0.272907
vt 0.647533 0.307571
vn -0.1969 -0.9591 -0.2032
vn 0.1331 -0.9737 -0.1850
vn -0.9364 -0.3105 -0.1638
vn 0.9337 -0.3139 0.1724
vn 0.1707 -0.4594 -0.8716
vn -0.1771 -0.4606 0.8698
vn -0.8916 -0.4258 -0.1541
vn -0.1313 -0.4196 0.8981
vn 0.1313 -0.4196 -0.8981
vn 0.8916 -0.4258 0.1541
vn 0.9293 -0.3108 -0.1995
vn -0.9423 -0.3063 0.1352
vn 0.1283 -0.9753 0.1798
vn 0.8916 -0.4258 -0.1541
vn -0.8916 -0.4258 0.1541
vn -0.1969 -0.9591 0.2032
vn 0.1969 -0.9591 0.2032
vn -0.1481 -0.9713 0.1864
vn -0.1313 -0.4196 -0.8981
vn 0.1313 -0.4196 0.8981
vn 0.1225 -0.4521 0.8835
vn -0.2224 -0.4719 -0.8532
vn -0.1565 -0.9694 -0.1893
vn 0.1969 -0.9591 -0.2032
vn -0.2191 0.0000 0.9757
vn -0.9878 0.0000 -0.1555
vn -0.1449 0.0000 -0.9894
vn -0.1449 0.0000 0.9894
vn 0.9854 0.0000 0.1701
vn 0.1449 0.0000 0.9894
vn 0.9854 0.0000 -0.1701
vn 0.9826 0.0000 -0.1859
vn -0.2512 0.0000 -0.9679
vn 0.9862 0.0000 0.1658
vn 0.2133 0.0000 -0.9770
vn -0.9915 0.0000 0.1301
vn 0.1449 0.0000 -0.9894
vn 0.1714 0.0000 0.9852
vn -0.9854 0.0000 0.1701
vn -0.9854 0.0000 -0.1701
vn 0.0004 -0.6459 0.7635
vn 0.0000 1.0000 0.0000
vn -0.5750 -0.8181 0.0002
vn 0.6489 -0.7609 -0.0036
vn 0.0042 -0.6335 -0.7738
vn 0.0000 -1.0000 -0.0000
vn 0.0088 0.0000 -1.0000
vn 0.0180 0.0000 0.9998
vn -1.0000 0.0000 -0.0063
vn 1.0000 0.0000 0.0044
vn 0.0000 0.0000 1.0000
vn -1.0000 -0.0000 0.0000
vn 0.0000 0.0000 -1.0000
vn 1.0000 -0.0000 0.0000
s off
f 34/1/1 23/2/1 2/3/1 32/4/1
f 33/5/2 29/6/2 8/7/2 20/8/2
f 19/9/3 17/10/3 10/11/3 6/12/3
f 20/8/4 18/13/4 11/14/4 7/15/4
f 29/6/5 27/16/5 12/17/5 8/7/5
f 30/18/6 28/19/6 9/20/6 5/21/6
f 23/2/7 21/22/7 14/23/7 2/3/7
f 31/24/8 25/25/8 13/26/8 1/27/8
f 32/4/9 26/28/9 16/29/9 4/30/9
f 24/31/10 22/32/10 15/33/10 3/34/10
f 8/7/11 12/17/11 18/13/11 20/8/11
f 5/21/12 9/20/12 17/10/12 19/9/12
f 30/18/13 33/5/13 20/8/13 7/15/13
f 4/30/14 16/29/14 22/32/14 24/31/14
f 1/27/15 13/26/15 21/22/15 23/2/15
f 31/24/16 1/27/16 23/2/16 34/1/16
f 3/34/17 31/24/17 34/1/17 24/31/17
f 5/21/18 19/9/18 33/5/18 30/18/18
f 2/3/19 14/23/19 26/28/19 32/4/19
f 3/34/20 15/33/20 25/25/20 31/24/20
f 7/15/21 11/14/21 28/19/21 30/18/21
f 6/12/22 10/11/22 27/16/22 29/6/22
f 19/9/23 6/12/23 29/6/23 33/5/23
f 24/31/24 34/1/24 32/4/24 4/30/24
f 99/35/25 9/20/25 28/19/25 104/36/25
f 102/37/26 10/11/26 17/10/26 91/38/26
f 100/39/27 26/28/27 14/23/27 95/40/27
f 97/41/28 13/26/28 25/25/28 94/42/28
f 92/43/29 15/33/29 22/32/29 93/44/29
f 94/42/30 25/25/30 15/33/30 92/43/30
f 93/44/31 22/32/31 16/29/31 90/45/31
f 103/46/32 18/13/32 12/17/32 89/47/32
f 101/48/33 27/16/33 10/11/33 102/37/33
f 98/49/34 11/14/34 18/13/34 103/46/34
f 89/47/35 12/17/35 27/16/35 101/48/35
f 91/38/36 17/10/36 9/20/36 99/35/36
f 90/45/37 16/29/37 26/28/37 100/39/37
f 104/36/38 28/19/38 11/14/38 98/49/38
f 96/50/39 21/22/39 13/26/39 97/41/39
f 95/40/40 14/23/40 21/22/40 96/50/40
f 86/51/41 85/52/41 35/53/41 76/54/41 53/55/41 72/56/41 39/57/41
f 58/58/42 50/59/42 36/60/42 54/61/42
f 52/62/42 38/63/42 43/64/42 55/65/42
f 55/65/42 43/64/42 46/66/42 56/67/42
f 85/68/43 87/69/43 37/70/43 66/71/43 68/72/43 35/73/43
f 56/67/42 46/66/42 48/74/42 57/75/42
f 57/75/42 48/74/42 50/59/42 58/58/42
f 88/76/44 86/77/44 39/78/44 69/79/44 65/80/44 41/81/44
f 62/82/42 57/75/42 58/58/42 63/83/42
f 61/84/42 56/67/42 57/75/42 62/82/42
f 60/85/42 55/65/42 56/67/42 61/84/42
f 59/86/42 52/62/42 55/65/42 60/85/42
f 63/83/42 58/58/42 54/61/42 64/87/42
f 87/88/45 88/89/45 41/90/45 71/91/45 51/92/45 75/93/45 37/94/45
f 49/95/42 63/96/42 64/97/42 40/98/42
f 42/99/42 59/86/42 60/85/42 44/100/42
f 44/101/42 60/102/42 61/103/42 45/104/42
f 45/104/42 61/103/42 62/105/42 47/106/42
f 47/106/42 62/105/42 63/96/42 49/95/42
f 73/107/46 67/108/46 51/109/46 71/110/46
f 77/111/46 66/112/46 37/113/46 75/114/46
f 78/115/46 70/116/46 53/117/46 76/118/46
f 74/119/46 69/120/46 39/121/46 72/122/46
f 67/123/47 73/124/47 83/125/47 79/126/47
f 77/111/46 78/115/46 68/127/46 66/112/46
f 69/120/46 74/119/46 73/107/46 65/128/46
f 70/116/46 74/119/46 72/122/46 53/117/46
f 65/128/46 73/107/46 71/110/46 41/129/46
f 68/127/46 78/115/46 76/118/46 35/130/46
f 67/108/46 77/111/46 75/114/46 51/109/46
f 70/131/48 78/132/48 84/133/48 81/134/48
f 78/135/49 77/136/49 80/137/49 84/138/49
f 73/139/50 74/140/50 82/141/50 83/142/50
f 74/143/48 70/131/48 81/134/48 82/144/48
f 77/145/47 67/146/47 79/147/47 80/148/47
f 81/149/46 84/150/46 93/151/46 90/152/46 100/153/46 95/154/46 96/155/46 82/156/46
f 64/157/51 54/158/51 36/159/51 85/160/51 86/161/51 40/162/51
f 46/163/52 43/164/52 38/165/52 87/166/52 85/167/52 36/168/52 50/169/52 48/170/52
f 52/171/53 59/172/53 42/173/53 88/174/53 87/175/53 38/176/53
f 44/177/54 45/178/54 47/179/54 49/180/54 40/181/54 86/182/54 88/183/54 42/184/54
f 82/156/46 96/155/46 97/185/46 94/186/46 92/187/46 93/151/46 84/150/46 80/188/46 103/189/46 89/190/46 101/191/46 102/192/46 91/193/46 83/194/46
f 83/194/46 91/193/46 99/195/46 104/196/46 98/197/46 103/189/46 80/188/46 79/198/46
