# Blender v2.79 (sub 0) OBJ File: 'Plug.blend'
# www.blender.org
o TwoPlug_Cube.002
v 0.204742 -1.257116 -0.422899
v 0.631865 -1.257116 -0.410774
v 0.572500 -1.636988 -0.188981
v 0.247412 -1.636988 -0.198210
v 0.746575 0.386893 -0.604302
v 0.049105 0.386893 -0.611055
v 0.049105 1.894881 -0.611055
v 0.746575 1.894881 -0.604302
v -0.144113 0.121360 -0.942232
v -0.144114 0.121360 0.942232
v -0.354291 0.174680 1.156731
v -0.354290 0.174680 -1.171622
v 0.942232 0.121360 0.942233
v 0.942232 0.121360 -0.942232
v 1.152410 0.174680 -1.171621
v 1.152409 0.174680 1.156732
v 0.671049 -1.000000 -0.671049
v 0.127070 -1.000000 -0.671049
v 0.127070 -1.000000 0.671049
v 0.671049 -1.000000 0.671049
v 1.152410 0.386893 -1.171621
v 1.152408 0.386893 1.156732
v -0.354291 0.386893 1.156731
v -0.354290 0.386893 -1.171622
v 0.632128 -1.262528 0.423434
v 0.215913 -1.262528 0.445567
v 0.255914 -1.636988 0.269338
v 0.572700 -1.636988 0.276606
v 0.735607 0.386893 0.475102
v 0.735606 0.386893 0.658898
v 0.738907 0.386893 -0.444302
v 0.061884 0.386893 0.658898
v 0.061885 0.386893 0.475102
v 0.056930 0.386893 -0.451690
v 0.738907 1.894881 -0.444301
v 0.061885 1.894881 0.475102
v 0.061884 1.894881 0.658898
v 0.735606 1.894881 0.658898
v 0.735607 1.894881 0.475102
v 0.056930 1.894881 -0.451690
vt 0.557549 0.060414
vt 0.513968 0.045774
vt 0.602556 0.034888
vt 0.636370 0.038810
vt 0.942454 0.421862
vt 0.701865 0.421862
vt 0.701865 0.942034
vt 0.942454 0.942034
vt 0.283588 0.144465
vt 0.215416 0.360959
vt 0.220510 0.350230
vt 0.298137 0.156744
vt 0.096296 0.425454
vt 0.132506 0.567241
vt 0.104407 0.565866
vt 0.056925 0.421429
vt 0.177364 0.064396
vt 0.456291 0.060712
vt 0.510477 0.089654
vt 0.443875 0.446179
vt 0.238730 0.647310
vt 0.465618 0.592498
vt 0.385136 0.468273
vt 0.411433 0.563556
vt 0.055715 0.565789
vt 0.008879 0.414115
vt 0.172716 0.340084
vt 0.249394 0.157240
vt 0.100573 0.062944
vt 0.149265 0.063022
vt 0.453990 0.489264
vt 0.498069 0.475609
vt 0.582059 0.501792
vt 0.548374 0.506702
vt 0.512690 0.563259
vt 0.591512 0.541655
vt 0.557698 0.537732
vt 0.469109 0.548618
vt 0.068413 0.437578
vt 0.064352 0.419391
vt 0.083975 0.566355
vt 0.080513 0.551971
vt 0.140254 0.356675
vt 0.146479 0.350603
vt 0.188757 0.139235
vt 0.195479 0.134953
vt 0.143898 0.642080
vt 0.819403 0.412114
vt 0.893184 0.412114
vt 0.893184 0.932286
vt 0.819403 0.932286
vt 0.128833 0.063511
vt 0.700618 0.679902
vt 0.700618 0.604294
vt 0.933015 0.604294
vt 0.933015 0.679902
vt 0.928094 0.700143
vt 0.687506 0.703257
vt 0.690205 0.629769
vt 0.925449 0.626362
vt 0.705603 0.423871
vt 0.937999 0.423871
vt 0.937999 0.944043
vt 0.705603 0.944043
vt 0.824046 0.454302
vt 0.899654 0.454302
vt 0.899654 0.974473
vt 0.824046 0.974473
vt 0.884806 0.408366
vt 0.811318 0.408366
vt 0.811318 0.928538
vt 0.884806 0.928538
vt 0.891544 0.444927
vt 0.815936 0.444927
vt 0.815936 0.965098
vt 0.891544 0.965098
vt 0.931749 0.436668
vt 0.699353 0.436668
vt 0.699353 0.956840
vt 0.931749 0.956840
vt 0.694222 0.442769
vt 0.929465 0.442769
vt 0.929465 0.962941
vt 0.694222 0.962941
vn 0.0245 -0.5069 -0.8617
vn 0.0097 0.0000 -1.0000
vn -0.2459 -0.9693 -0.0000
vn 0.2459 -0.9693 -0.0000
vn 0.0000 -0.2351 -0.9720
vn -0.9720 -0.2351 -0.0000
vn -0.0000 -0.2351 0.9720
vn 0.9720 -0.2351 -0.0000
vn 1.0000 0.0000 0.0000
vn -0.0000 -0.0000 1.0000
vn -1.0000 0.0000 -0.0000
vn 0.0000 0.0000 -1.0000
vn -0.0000 -0.9705 0.2412
vn 0.0000 -0.9740 -0.2264
vn 0.0186 -0.3964 0.9179
vn -0.9523 -0.3050 0.0041
vn -0.9940 -0.1080 0.0142
vn 0.0171 -0.6684 0.7436
vn 0.0089 -0.7027 -0.7114
vn 0.0000 -1.0000 0.0000
vn 0.9889 -0.1486 -0.0005
vn 0.9880 -0.1547 -0.0010
vn 0.9880 -0.1546 -0.0009
vn 0.9878 -0.1557 -0.0010
vn 0.0000 1.0000 0.0000
vn 0.9989 0.0000 0.0479
vn -0.9988 -0.0000 0.0490
vn -0.0108 -0.0000 0.9999
s 1
f 1/1/1 2/2/1 3/3/1 4/4/1
f 5/5/2 6/6/2 7/7/2 8/8/2
f 9/9/3 10/10/3 11/11/3 12/12/3
f 13/13/4 14/14/4 15/15/4 16/16/4
f 14/17/5 17/18/5 18/19/5 9/9/5
f 19/20/6 10/10/6 9/21/6 18/22/6
f 20/23/7 13/13/7 10/10/7 19/20/7
f 17/24/8 14/14/8 13/13/8 20/23/8
f 15/15/9 21/25/9 22/26/9 16/16/9
f 16/16/10 22/26/10 23/27/10 11/11/10
f 11/11/11 23/27/11 24/28/11 12/12/11
f 21/29/12 15/30/12 12/12/12 24/28/12
f 10/10/13 13/13/13 16/16/13 11/11/13
f 14/17/14 9/9/14 12/12/14 15/30/14
f 25/31/15 26/32/15 27/33/15 28/34/15
f 18/22/16 1/35/16 26/32/16 19/20/16
f 26/32/17 1/35/17 4/36/17 27/33/17
f 25/31/18 20/23/18 19/20/18 26/32/18
f 17/18/19 2/2/19 1/1/19 18/19/19
f 3/37/20 28/34/20 27/33/20 4/36/20
f 20/23/21 25/31/22 2/38/23 17/24/21
f 2/38/23 25/31/22 28/34/24 3/37/24
f 29/39/25 30/40/25 22/26/25 21/25/25 5/41/25 31/42/25
f 30/40/25 32/43/25 23/27/25 22/26/25
f 32/43/25 33/44/25 34/45/25 6/46/25 24/28/25 23/27/25
f 31/42/25 34/47/25 33/44/25 29/39/25
f 31/48/26 5/49/26 8/50/26 35/51/26
f 21/29/25 24/28/25 6/46/25 5/52/25
f 36/53/25 37/54/25 38/55/25 39/56/25
f 8/57/25 7/58/25 40/59/25 35/60/25
f 32/61/10 30/62/10 38/63/10 37/64/10
f 30/65/9 29/66/9 39/67/9 38/68/9
f 6/69/27 34/70/27 40/71/27 7/72/27
f 33/73/11 32/74/11 37/75/11 36/76/11
f 29/77/12 33/78/12 36/79/12 39/80/12
f 34/81/28 31/82/28 35/83/28 40/84/28
